<svg width="24" height="25" viewBox="0 0 24 25" xmlns="http://www.w3.org/2000/svg">
<path d="M19.27 5.41601C17.94 4.79601 16.5 4.34601 15 4.08601C14.9868 4.08559 14.9738 4.08806 14.9617 4.09324C14.9496 4.09843 14.9388 4.1062 14.93 4.11601C14.75 4.44601 14.54 4.87601 14.4 5.20601C12.809 4.96601 11.191 4.96601 9.6 5.20601C9.46 4.86601 9.25 4.44601 9.06 4.11601C9.05 4.09601 9.02 4.08601 8.99 4.08601C7.49 4.34601 6.06 4.79601 4.72 5.41601C4.71 5.41601 4.7 5.42601 4.69 5.43601C1.97 9.50601 1.22 13.466 1.59 17.386C1.59 17.406 1.6 17.426 1.62 17.436C3.42 18.756 5.15 19.556 6.86 20.086C6.89 20.096 6.91999 20.086 6.93 20.066C7.33 19.516 7.69 18.936 8 18.326C8.02 18.286 8 18.246 7.96 18.236C7.39 18.016 6.85 17.756 6.32 17.456C6.28 17.436 6.27999 17.376 6.31 17.346C6.42 17.266 6.52999 17.176 6.64 17.096C6.66 17.076 6.69 17.076 6.71 17.086C10.15 18.656 13.86 18.656 17.26 17.086C17.28 17.076 17.31 17.076 17.33 17.096C17.44 17.186 17.55 17.266 17.66 17.356C17.7 17.386 17.7 17.446 17.65 17.466C17.13 17.776 16.58 18.026 16.01 18.246C15.97 18.256 15.96 18.306 15.97 18.336C16.29 18.946 16.65 19.526 17.04 20.076C17.07 20.086 17.1 20.096 17.13 20.086C18.85 19.556 20.58 18.756 22.38 17.436C22.4 17.426 22.41 17.406 22.41 17.386C22.85 12.856 21.68 8.92601 19.31 5.43601C19.3 5.42601 19.29 5.41601 19.27 5.41601ZM8.52 14.996C7.49 14.996 6.63 14.046 6.63 12.876C6.63 11.706 7.47 10.756 8.52 10.756C9.58 10.756 10.42 11.716 10.41 12.876C10.41 14.046 9.57 14.996 8.52 14.996ZM15.49 14.996C14.46 14.996 13.6 14.046 13.6 12.876C13.6 11.706 14.44 10.756 15.49 10.756C16.55 10.756 17.39 11.716 17.38 12.876C17.38 14.046 16.55 14.996 15.49 14.996Z"/>
</svg>
