<svg width="24" height="25" viewBox="0 0 24 25" xmlns="http://www.w3.org/2000/svg">
<path d="M12 2.08603C10.6868 2.08603 9.38642 2.34469 8.17317 2.84723C6.95991 3.34978 5.85752 4.08638 4.92893 5.01496C3.05357 6.89033 2 9.43386 2 12.086C2 16.506 4.87 20.256 8.84 21.586C9.34 21.666 9.5 21.356 9.5 21.086V19.396C6.73 19.996 6.14 18.056 6.14 18.056C5.68 16.896 5.03 16.586 5.03 16.586C4.12 15.966 5.1 15.986 5.1 15.986C6.1 16.056 6.63 17.016 6.63 17.016C7.5 18.536 8.97 18.086 9.54 17.846C9.63 17.196 9.89 16.756 10.17 16.506C7.95 16.256 5.62 15.396 5.62 11.586C5.62 10.476 6 9.58603 6.65 8.87603C6.55 8.62603 6.2 7.58603 6.75 6.23603C6.75 6.23603 7.59 5.96603 9.5 7.25603C10.29 7.03603 11.15 6.92603 12 6.92603C12.85 6.92603 13.71 7.03603 14.5 7.25603C16.41 5.96603 17.25 6.23603 17.25 6.23603C17.8 7.58603 17.45 8.62603 17.35 8.87603C18 9.58603 18.38 10.476 18.38 11.586C18.38 15.406 16.04 16.246 13.81 16.496C14.17 16.806 14.5 17.416 14.5 18.346V21.086C14.5 21.356 14.66 21.676 15.17 21.586C19.14 20.246 22 16.506 22 12.086C22 10.7728 21.7413 9.47245 21.2388 8.25919C20.7362 7.04594 19.9997 5.94355 19.0711 5.01496C18.1425 4.08638 17.0401 3.34978 15.8268 2.84723C14.6136 2.34469 13.3132 2.08603 12 2.08603Z"/>
</svg>
