<svg width="24" height="25" viewBox="0 0 24 25" xmlns="http://www.w3.org/2000/svg">
<path d="M12 2.08603C6.48 2.08603 2 6.56603 2 12.086C2 17.606 6.48 22.086 12 22.086C17.52 22.086 22 17.606 22 12.086C22 6.56603 17.52 2.08603 12 2.08603ZM16.64 8.88603C16.49 10.466 15.84 14.306 15.51 16.076C15.37 16.826 15.09 17.076 14.83 17.106C14.25 17.156 13.81 16.726 13.25 16.356C12.37 15.776 11.87 15.416 11.02 14.856C10.03 14.206 10.67 13.846 11.24 13.266C11.39 13.116 13.95 10.786 14 10.576C14.0069 10.5442 14.006 10.5112 13.9973 10.4798C13.9886 10.4485 13.9724 10.4197 13.95 10.396C13.89 10.346 13.81 10.366 13.74 10.376C13.65 10.396 12.25 11.326 9.52 13.166C9.12 13.436 8.76 13.576 8.44 13.566C8.08 13.556 7.4 13.366 6.89 13.196C6.26 12.996 5.77 12.886 5.81 12.536C5.83 12.356 6.08 12.176 6.55 11.986C9.47 10.716 11.41 9.87603 12.38 9.47603C15.16 8.31603 15.73 8.11603 16.11 8.11603C16.19 8.11603 16.38 8.13603 16.5 8.23603C16.6 8.31603 16.63 8.42603 16.64 8.50603C16.63 8.56603 16.65 8.74603 16.64 8.88603Z" fill="white"/>
</svg>
