<svg width="24" height="25" viewBox="0 0 24 25" xmlns="http://www.w3.org/2000/svg">
<path d="M10 15.086L15.19 12.086L10 9.08603V15.086ZM21.56 7.25603C21.69 7.72603 21.78 8.35603 21.84 9.15603C21.91 9.95603 21.94 10.646 21.94 11.246L22 12.086C22 14.276 21.84 15.886 21.56 16.916C21.31 17.816 20.73 18.396 19.83 18.646C19.36 18.776 18.5 18.866 17.18 18.926C15.88 18.996 14.69 19.026 13.59 19.026L12 19.086C7.81 19.086 5.2 18.926 4.17 18.646C3.27 18.396 2.69 17.816 2.44 16.916C2.31 16.446 2.22 15.816 2.16 15.016C2.09 14.216 2.06 13.526 2.06 12.926L2 12.086C2 9.89603 2.16 8.28603 2.44 7.25603C2.69 6.35603 3.27 5.77603 4.17 5.52603C4.64 5.39603 5.5 5.30603 6.82 5.24603C8.12 5.17603 9.31 5.14603 10.41 5.14603L12 5.08603C16.19 5.08603 18.8 5.24603 19.83 5.52603C20.73 5.77603 21.31 6.35603 21.56 7.25603Z" fill="white"/>
</svg>
